<svg id="loading" xmlns="http://www.w3.org/2000/svg" width="32" height="32" viewBox="0 0 32 32">
  <g id="Grupo_11655" data-name="Grupo 11655" transform="translate(-148 -220)" opacity="0">
    <rect id="Rectángulo_381" data-name="Rectángulo 381" width="4" height="4" transform="translate(148 220)" fill="#da1e27"/>
    <g id="Rectángulo_385" data-name="Rectángulo 385" transform="translate(152 224)" fill="none" stroke="#707070" stroke-width="0.15">
      <rect width="24" height="24" stroke="none"/>
      <rect x="0.075" y="0.075" width="23.85" height="23.85" fill="none"/>
    </g>
    <rect id="Rectángulo_384" data-name="Rectángulo 384" width="4" height="4" transform="translate(148 248)" fill="#da1e27"/>
    <rect id="Rectángulo_382" data-name="Rectángulo 382" width="4" height="4" transform="translate(176 220)" fill="#da1e27"/>
    <rect id="Rectángulo_383" data-name="Rectángulo 383" width="4" height="4" transform="translate(176 248)" fill="#da1e27"/>
    <g id="Rectángulo_386" data-name="Rectángulo 386" transform="translate(148 220)" fill="none" stroke="#707070" stroke-width="0.15">
      <rect width="32" height="32" stroke="none"/>
      <rect x="0.075" y="0.075" width="31.85" height="31.85" fill="none"/>
    </g>
  </g>
  <g id="_010-loading" data-name="010-loading" transform="translate(4 -34.153)">
    <g id="Grupo_369" data-name="Grupo 369" transform="translate(4.076 40)">
      <g id="Grupo_368" data-name="Grupo 368" transform="translate(0 0)">
        <path id="Trazado_96" data-name="Trazado 96" d="M106.426,51.466a.94.94,0,0,0-1.33-.007L102.937,53.6V50.153a10.156,10.156,0,0,0-14.922-8.965l-.006,0L88,41.2h0l-.028.015-.013.007-.01.005-.164.091-.011.006c-.221.126-.438.26-.649.4a.94.94,0,1,0,1.05,1.56,8.274,8.274,0,0,1,12.885,6.869v3.466l-2.164-2.112a.94.94,0,0,0-1.313,1.345l2.431,2.373a2.843,2.843,0,0,0,3.968-.014l2.44-2.416A.94.94,0,0,0,106.426,51.466Z" transform="translate(-86.707 -40)" fill="#1e1248"/>
      </g>
    </g>
    <g id="Grupo_371" data-name="Grupo 371" transform="translate(0 48.65)">
      <g id="Grupo_370" data-name="Grupo 370">
        <path id="Trazado_97" data-name="Trazado 97" d="M1.014,224.016a.939.939,0,0,0-1,.882c-.012.2-.019.414-.019.62,0,.138,0,.277.008.414a.94.94,0,0,0,.939.9H.985a.94.94,0,0,0,.9-.977c0-.112-.007-.226-.007-.338,0-.169.005-.339.015-.507A.94.94,0,0,0,1.014,224.016Z" transform="translate(0 -224.014)" fill="#1e1248"/>
      </g>
    </g>
    <g id="Grupo_373" data-name="Grupo 373" transform="translate(0.91 53.211)">
      <g id="Grupo_372" data-name="Grupo 372" transform="translate(0 0)">
        <path id="Trazado_98" data-name="Trazado 98" d="M21.557,322.328a8.27,8.27,0,0,1-.4-.74.94.94,0,0,0-1.693.817,10.164,10.164,0,0,0,.5.908.94.94,0,0,0,1.6-.986Z" transform="translate(-19.365 -321.057)" fill="#1e1248"/>
      </g>
    </g>
    <g id="Grupo_375" data-name="Grupo 375" transform="translate(8.275 58.379)">
      <g id="Grupo_374" data-name="Grupo 374" transform="translate(0 0)">
        <path id="Trazado_99" data-name="Trazado 99" d="M177.924,431.042a8.434,8.434,0,0,1-.843-.042.94.94,0,0,0-.189,1.871,10.3,10.3,0,0,0,1.032.052h0a.94.94,0,1,0,0-1.88Z" transform="translate(-176.046 -430.995)" fill="#1e1248"/>
      </g>
    </g>
    <g id="Grupo_377" data-name="Grupo 377" transform="translate(3.92 56.755)">
      <g id="Grupo_376" data-name="Grupo 376">
        <path id="Trazado_100" data-name="Trazado 100" d="M85.585,397.061a8.326,8.326,0,0,1-.714-.45.94.94,0,1,0-1.082,1.538,10.2,10.2,0,0,0,.876.552.94.94,0,1,0,.919-1.64Z" transform="translate(-83.39 -396.44)" fill="#1e1248"/>
      </g>
    </g>
    <g id="Grupo_379" data-name="Grupo 379" transform="translate(0.994 44.231)">
      <g id="Grupo_378" data-name="Grupo 378" transform="translate(0 0)">
        <path id="Trazado_101" data-name="Trazado 101" d="M23.06,130.156a.94.94,0,0,0-1.3.281,10.169,10.169,0,0,0-.516.9.94.94,0,1,0,1.676.852,8.285,8.285,0,0,1,.42-.732A.94.94,0,0,0,23.06,130.156Z" transform="translate(-21.143 -130.007)" fill="#1e1248"/>
      </g>
    </g>
  </g>
</svg>
